<svg data-name="Layer 1" xmlns="http://www.w3.org/2000/svg" width="691" height="571.228"><path d="M690 36H1a1 1 0 0 1 0-2h689a1 1 0 0 1 0 2Z" fill="#cacaca"/><circle cx="23.508" cy="11" r="11" fill="#3f3d56"/><circle cx="61.508" cy="11" r="11" fill="#3f3d56"/><circle cx="99.508" cy="11" r="11" fill="#3f3d56"/><path d="M432.813 137.815H258.187a8.225 8.225 0 0 1 0-16.45h174.626a8.225 8.225 0 1 1 0 16.45ZM404.658 109.66H286.342a8.225 8.225 0 0 1 0-16.451h118.316a8.225 8.225 0 0 1 0 16.45Z" fill="#e4e4e4"/><circle cx="123.732" cy="297.228" r="73" fill="#f0f0f0"/><circle cx="595.732" cy="297.228" r="73" fill="#f0f0f0"/><circle cx="345.732" cy="297.228" r="73" fill="#f0f0f0"/><path d="M631.212 328.867a112.493 112.493 0 0 0-17.946-7.552l-.79-8.73-32.006-3.448-4.067 11.158-11.486 4.31a5.605 5.605 0 0 0-1.166.608h-.013a11.342 11.342 0 0 0-5.269 1.821 11.665 11.665 0 0 0-2.816 2.525 66.534 66.534 0 0 0 4.831 3.315l.074.037c.473.291.96.582 1.444.862a57.93 57.93 0 0 0 2.672 1.493l.57.292a64.19 64.19 0 0 0 4.02 1.918c.279.121.583.243.862.364.024.012.036.012.06.025a54.26 54.26 0 0 0 1.942.764 63.826 63.826 0 0 0 6.581 2.113 67.676 67.676 0 0 0 17.448 2.283c2.15 0 4.274-.097 6.375-.304a67.391 67.391 0 0 0 14.133-2.853c.012 0 .025-.012.036-.012a66.317 66.317 0 0 0 8.488-3.363c.011-.013.036-.013.049-.025.619-.291 1.213-.607 1.82-.91l.292-.146c.486-.255.972-.51 1.458-.777a62.742 62.742 0 0 0 3.58-2.125c.328-.194.644-.4.972-.62.461-.303.923-.618 1.372-.946a52.586 52.586 0 0 0-3.52-2.077Z" fill="#04c35c"/><circle cx="595.217" cy="280.567" r="23.051" fill="#a0616a"/><path d="M579.741 269.34c2.386 2.823 6.424 3.62 10.15 3.946 7.565.664 18.565-.412 25.959-2.12.527 5.115-.911 10.63 2.101 14.837a68.873 68.873 0 0 0 2.447-15.614 14.945 14.945 0 0 0-.865-6.687 6.15 6.15 0 0 0-5.239-3.862 13.13 13.13 0 0 1 5.857-2.505l-7.319-3.678 1.88-1.93-13.251-.81 3.838-2.438a83.222 83.222 0 0 0-17.436-.55c-2.7.198-5.523.578-7.71 2.143s-3.453 4.674-2.095 6.97a10.122 10.122 0 0 0-7.714 6.121 16.34 16.34 0 0 0-.585 7.855 55.676 55.676 0 0 0 2.919 12.35Z" fill="#2f2e41"/><circle data-name="Ellipse 188" cx="349.782" cy="247.958" r="9.746" fill="#2f2e41"/><path data-name="Path 969" d="M341.327 253.029a9.747 9.747 0 0 1 3.544-16.36 9.744 9.744 0 1 0 4.517 18.876 9.723 9.723 0 0 1-8.062-2.517Z" fill="#2f2e41"/><circle data-name="Ellipse 189" cx="349.978" cy="281.777" r="28.631" fill="#2f2e41"/><path data-name="Path 970" d="M324.508 266.013a28.626 28.626 0 0 1 39.678-3.002c-.233-.223-.467-.447-.708-.663a28.63 28.63 0 0 0-38.208 42.65l.163.145c.243.216.493.42.742.627a28.626 28.626 0 0 1-1.666-39.757Z" fill="#2f2e41"/><circle data-name="Ellipse 190" cx="349.735" cy="291.725" r="18.44" fill="#a0616a"/><path d="M382.732 339.77v6.186a60.734 60.734 0 0 1-4.844 2.79l-.28.14c-.584.292-1.157.596-1.752.876-.011.012-.035.012-.046.023a63.744 63.744 0 0 1-8.16 3.234c-.012 0-.023.012-.035.012a64.798 64.798 0 0 1-13.588 2.743c-2.02.198-4.063.292-6.129.292a65.06 65.06 0 0 1-16.774-2.195 63.17 63.17 0 0 1-8.195-2.767c-.024-.011-.036-.011-.059-.023-.268-.117-.56-.233-.829-.35a61.86 61.86 0 0 1-3.864-1.844l-.548-.28a66.33 66.33 0 0 1-3.958-2.265l-.07-.035a63.942 63.942 0 0 1-5.766-4.051 46.553 46.553 0 0 1-2.744-2.276 46.773 46.773 0 0 1-1.377-1.226 63.195 63.195 0 0 1-4.845-4.996 23.617 23.617 0 0 1 .888-3.584l.011-.012a5.24 5.24 0 0 1 .245-.584 4.655 4.655 0 0 1 .222-.49c2.09-3.91 5.872-4.88 10.565-5.09 2.65-.116 5.58.012 8.673-.023a61.265 61.265 0 0 0 5.02-.222c10.681-.968 8.744-7.272 9.222-10.67.479-3.291 3.444-.443 3.642-.256l.011.012a37.672 37.672 0 0 0 19.379 3.397 37.694 37.694 0 0 1 3.432-.257c3.012-.035 2.358.829 1.32 1.54a13.055 13.055 0 0 1-1.577.888s-.479 2.918-.969 7.284c-.467 4.18 14.254 5.627 17.137 6.537h.012a10.527 10.527 0 0 1 6.63 7.541Z" fill="#04c35c"/><ellipse data-name="Ellipse 191" cx="331.053" cy="287.844" rx="1.456" ry="2.669" fill="#a0616a"/><ellipse data-name="Ellipse 192" cx="368.419" cy="287.844" rx="1.456" ry="2.669" fill="#a0616a"/><path d="m100.377 302.34 3.503 12.135 44.766-.79-.392-22.234c-.31-17.599-12.748-32.777-30.347-32.467s-28.789 15.189-28.478 32.788l2.556 22.913 7.3-.129Z" fill="#2f2e41"/><circle cx="119.907" cy="290.74" r="20.085" fill="#ffb6b6"/><path d="M141.895 276.637a7.79 7.79 0 0 0-1.384-4.299c-.092-.13-.185-.25-.278-.37a7.827 7.827 0 0 0-6.276-3l-14.436.26-14.427.251a7.817 7.817 0 0 0-7.66 7.938l3.436 6.916 1.977 3.974.325-.186c12.487-7.019 17.593-7.112 34.118-.585l.334.13 1.31-3.351 2.97-7.604Z" fill="#2f2e41"/><path d="M159.887 322.062c-4.308-4.298-18.883-2.59-18.883-2.59l-38.472 2.423c-8.532.632-16.22 7.465-19.004 10.231.445.436.9.863 1.365 1.272a53.853 53.853 0 0 0 63.333 6.016c4.122-2.46 9.396-5.41 12.701-8.854 1.31-1.356 2.357-1.329 3.517-2.814a11.59 11.59 0 0 0-4.557-5.684Z" fill="#04c35c"/><circle cx="123.732" cy="498.228" r="73" fill="#f0f0f0"/><circle cx="595.732" cy="498.228" r="73" fill="#f0f0f0"/><circle cx="345.732" cy="498.228" r="73" fill="#f0f0f0"/><circle cx="122.537" cy="488.518" r="20.181" fill="#ffb8b8"/><path d="M103.444 494.832s1.715-3.01 1.317-13.07 14.92-4.37 27.72-5.33 10.09 16.795 10.09 16.795.923-1.056 2.9-9.625-2.512-17.107-2.512-17.107c-1.322-9.005-8.447-6.119-8.447-6.119 3.431 1.336 2.772 4.192 2.772 4.192-2.904-5.092-10.03-2.206-10.03-2.206-9.502-5.964-19.133 1.89-19.133 1.89-11.48 2.605-4.748 11.734-4.748 11.734-11.545 5.835.071 18.846.071 18.846Z" fill="#2f2e41"/><path d="M156.212 535.883a112.493 112.493 0 0 0-17.946-7.552l-.79-8.73-32.006-3.448-4.067 11.158-11.486 4.31a5.605 5.605 0 0 0-1.166.607h-.013a11.342 11.342 0 0 0-5.269 1.822 11.665 11.665 0 0 0-2.816 2.525 66.534 66.534 0 0 0 4.831 3.315l.074.036c.473.292.96.583 1.444.862a57.92 57.92 0 0 0 2.672 1.494l.57.291a64.19 64.19 0 0 0 4.02 1.919c.279.121.583.242.862.364.024.012.036.012.06.024a54.26 54.26 0 0 0 1.942.765 63.824 63.824 0 0 0 6.581 2.113 67.676 67.676 0 0 0 17.448 2.282c2.15 0 4.274-.097 6.375-.303a67.391 67.391 0 0 0 14.133-2.853c.012 0 .025-.013.036-.013a66.317 66.317 0 0 0 8.488-3.363c.011-.012.036-.012.049-.024.619-.292 1.213-.607 1.82-.91l.292-.147a62.742 62.742 0 0 0 5.038-2.902c.328-.194.644-.4.972-.619.461-.303.923-.619 1.372-.947a52.605 52.605 0 0 0-3.52-2.076ZM373.488 531.614l-12.15-1.105-7.27-5.31a.041.041 0 0 0-.01-.028l-.018.01-.291-.216-.038.338-12.27 4.718-12.609-2.908-4.362 4.719-19.428 6.445a9.87 9.87 0 0 0-2.43 2.298l.002.012a60.708 60.708 0 0 0 2.503 1.864 64.474 64.474 0 0 0 5.994 3.846 67.54 67.54 0 0 0 16.005 6.577q.76.21 1.52.394c.881.215 1.772.422 2.664.59q2.701.564 5.469.882a67.051 67.051 0 0 0 8.17.488q2.801 0 5.545-.215a68.346 68.346 0 0 0 9.55-1.455c.112-.028.225-.046.338-.084a67.548 67.548 0 0 0 13.959-4.86c.685-.328 1.37-.665 2.044-1.013q2.492-1.28 4.841-2.758a61.566 61.566 0 0 0 3.462-2.317 64.223 64.223 0 0 0 2.054-1.529l-.073-.155a16.163 16.163 0 0 0-13.171-9.228Z" fill="#04c35c"/><path d="M361.882 470.977a22.35 22.35 0 0 0-4.756-3.593c-10.742-5.929-22.477-6.032-32.196-.291a30.304 30.304 0 0 0-6.557 5.206 30.681 30.681 0 0 0-8.528 21.145v23.378h61.146v-25.77c0-6.904-3.8-14.897-9.109-20.075Z" fill="#2f2e41"/><circle cx="339.21" cy="494.1" r="22.084" fill="#ffb8b8"/><path d="M361.863 474.054a2.73 2.73 0 0 0-1.548-2.205c-13.818-6.454-27.833-6.285-41.633.507h-.253l-.085.347c-2.72 20.957-2.335 21.417-2.167 21.605a2.73 2.73 0 0 0 .967.703 2.648 2.648 0 0 0 1.078.225h31.502l.075-.356a51.455 51.455 0 0 1 1.407-5.554 61.66 61.66 0 0 1 3.462 5.685l.131.225h6.126a2.171 2.171 0 0 0 .347-.028 2.627 2.627 0 0 0 1.642-.854c.169-.178.563-.61-1.05-20.3Z" fill="#2f2e41"/><path d="m612.245 528.78-.795-8.833-32.42-3.492-4.106 11.3-11.64 4.361a5.687 5.687 0 0 0-1.196.613 11.758 11.758 0 0 0-6.346 2.578c.265.22.53.43.796.64.054.055.118.1.173.146.74.576 1.5 1.143 2.268 1.683.2.146.402.292.613.43a60.831 60.831 0 0 0 5.229 3.318q2.578 1.468 5.294 2.707a65.458 65.458 0 0 0 10.304 3.702q.74.206 1.481.384c.86.21 1.728.412 2.596.576q2.633.549 5.33.86a65.348 65.348 0 0 0 7.964.475q2.73 0 5.404-.21a66.611 66.611 0 0 0 9.307-1.417c.11-.028.22-.046.33-.082a65.832 65.832 0 0 0 13.604-4.736c.667-.32 1.335-.65 1.993-.988q2.428-1.248 4.718-2.688a44.927 44.927 0 0 0 1.627-1.051c-8.293-5.577-20.334-9.573-22.528-10.277Z" fill="#04c35c"/><circle data-name="Ellipse 109" cx="593.973" cy="487.515" r="23.346" fill="#a0616a"/><path data-name="Path 696" d="M578.302 476.141c2.417 2.86 6.507 3.667 10.28 3.995 7.662.672 18.803-.418 26.291-2.147.538 5.18-.922 10.765 2.128 15.027a69.76 69.76 0 0 0 2.479-15.814 15.146 15.146 0 0 0-.876-6.773 6.228 6.228 0 0 0-5.306-3.912 1.947 1.947 0 0 0 .427-2.036 6.622 6.622 0 0 0-5.02-4.974l-8.405-2.026s-7.886-3.459-13.777-3.024c-2.735.2-5.595.586-7.81 2.17s-3.497 4.735-2.12 7.06a10.251 10.251 0 0 0-7.813 6.2 16.55 16.55 0 0 0-.593 7.955 56.385 56.385 0 0 0 2.956 12.508Z" fill="#2f2e41"/><path d="M369.656 277.614a8.976 8.976 0 0 0-4.391-5.27 25.043 25.043 0 0 0-6.624-2.329 43.582 43.582 0 0 0-12.405-1.697c-4.183.205-8.46 1.65-11.303 4.726s-3.896 7.962-1.825 11.603l-.23.941a17.285 17.285 0 0 0 16.894-8.32 15.78 15.78 0 0 0 14.935 7.256 6.997 6.997 0 0 0 2.667-.767 5.549 5.549 0 0 0 2.282-6.143Z" fill="#2f2e41"/><path d="M667.232 6.728h-27a2 2 0 0 1 0-4h27a2 2 0 0 1 0 4ZM667.232 14.228h-27a2 2 0 0 1 0-4h27a2 2 0 0 1 0 4ZM667.232 21.728h-27a2 2 0 0 1 0-4h27a2 2 0 0 1 0 4Z" fill="#3f3d56"/></svg>